<?xml version="1.0" standalone="no"?>
<!DOCTYPE svg PUBLIC "-//W3C//DTD SVG 20010904//EN"
 "http://www.w3.org/TR/2001/REC-SVG-20010904/DTD/svg10.dtd">
<svg version="1.0" xmlns="http://www.w3.org/2000/svg"
 width="512.000000pt" height="512.000000pt" viewBox="0 0 512.000000 512.000000"
 preserveAspectRatio="xMidYMid meet">

<g transform="translate(0.000000,512.000000) scale(0.100000,-0.100000)"
fill="#c70101" stroke="none">
<path d="M2285 4739 c-130 -17 -279 -51 -414 -95 -805 -264 -1388 -978 -1491
-1824 -13 -109 -13 -411 0 -520 102 -844 687 -1561 1487 -1823 241 -79 424
-107 693 -107 268 0 452 28 690 106 804 264 1387 978 1490 1824 13 109 13 411
0 520 -50 413 -214 799 -477 1125 -353 438 -876 726 -1443 795 -100 12 -435
11 -535 -1z m320 -980 c34 -9 136 -107 724 -692 395 -395 689 -696 697 -714
17 -38 18 -91 4 -130 -16 -41 -346 -371 -395 -394 -49 -23 -84 -24 -133 -4
-25 11 -179 158 -489 468 l-453 452 -452 -452 c-311 -310 -465 -457 -490 -468
-49 -20 -84 -19 -133 4 -49 23 -379 353 -395 394 -14 40 -13 92 5 135 11 26
213 235 658 680 353 354 659 657 680 674 35 28 96 56 122 58 6 0 28 -5 50 -11z"/>
</g>
</svg>
